<svg width="512" height="512" viewBox="0 0 512 512" fill="none" xmlns="http://www.w3.org/2000/svg">
<g clip-path="url(#clip0)">
<path d="M37.0312 220.969C37.0312 289.719 87.6562 336.75 164.219 336.75C197.969 336.75 231.562 329.094 250.781 315.344V250.5C250.781 237.062 254.062 232.844 269.844 230.656V221.906H172.344V230.656C188.906 232.844 192.344 236.906 192.344 250.5V317.375C187.969 321.438 178.594 324.562 167.656 324.562C130.156 324.562 110.156 275.812 110.156 219.406C110.156 157.375 132.344 115.812 171.406 115.812C202.969 115.812 224.531 146.125 232.812 183.469H241.25L240 117.219C226.719 108.781 200.625 103.625 168.594 103.625C95.7812 103.625 37.0312 143.625 37.0312 220.969Z" fill="#5647EE"/>
<path d="M478.875 287.5C478.875 244.375 441.062 221.875 374.5 221.875H265.125V230.781C282 234.219 285.594 238.281 285.594 252.5V416.875C285.594 431.094 282 435.156 265.125 438.594V447.5H373.875V438.594C355.594 435.625 351.844 430.156 351.844 414.531V357.5H374.5C433.25 357.5 478.875 333.75 478.875 287.5ZM409.344 290.156C409.344 323.281 392.312 345.312 361.219 346.875L351.844 347.344V232.031L361.219 232.5C394.344 234.219 409.344 257.344 409.344 290.156Z" fill="#5647EE"/>
<circle cx="256" cy="256" r="253" stroke="#5647EE" stroke-width="6"/>
<circle cx="256" cy="256" r="243.5" stroke="#5647EE" stroke-width="3"/>
</g>
<defs>
<clipPath id="clip0">
<rect width="512" height="512" fill="white"/>
</clipPath>
</defs>
</svg>
