<?xml version="1.0" standalone="no"?>
<!DOCTYPE svg PUBLIC "-//W3C//DTD SVG 20010904//EN"
 "http://www.w3.org/TR/2001/REC-SVG-20010904/DTD/svg10.dtd">
<svg version="1.0" xmlns="http://www.w3.org/2000/svg"
 width="512.000000pt" height="512.000000pt" viewBox="0 0 512.000000 512.000000"
 preserveAspectRatio="xMidYMid meet">
<metadata>
Created by potrace 1.11, written by Peter Selinger 2001-2013
</metadata>
<g transform="translate(0.000000,512.000000) scale(0.100000,-0.100000)"
fill="#000000" stroke="none">
<path d="M2378 5115 c-2 -1 -37 -5 -78 -9 -41 -3 -86 -8 -100 -11 -36 -6 -140
-24 -174 -31 -50 -9 -237 -62 -311 -87 -846 -295 -1486 -1027 -1664 -1906 -38
-188 -46 -278 -45 -521 0 -179 7 -295 20 -365 2 -11 9 -49 15 -85 16 -92 65
-280 100 -380 261 -743 843 -1323 1586 -1581 135 -46 296 -87 418 -105 22 -3
51 -8 65 -10 72 -13 194 -19 355 -19 230 0 369 14 555 57 522 118 1005 403
1355 800 131 148 254 323 329 468 22 41 47 89 56 105 94 172 207 539 236 770
3 28 8 61 10 75 9 49 12 457 4 525 -16 133 -20 160 -36 240 -20 104 -48 207
-87 325 -17 52 -32 97 -32 100 -2 5 -9 22 -45 105 -287 663 -836 1169 -1531
1410 -89 31 -277 81 -344 92 -16 2 -41 6 -55 9 -30 5 -89 12 -190 23 -70 8
-404 13 -412 6z m452 -70 c58 -7 119 -15 135 -18 17 -3 48 -8 70 -12 79 -13
236 -56 352 -96 105 -37 405 -174 436 -199 7 -6 55 -38 107 -71 144 -94 253
-182 386 -314 132 -131 179 -186 267 -308 223 -310 382 -684 437 -1027 7 -41
14 -84 16 -95 13 -67 18 -162 19 -330 0 -163 -10 -359 -20 -375 -2 -3 -6 -27
-10 -55 -24 -180 -119 -475 -219 -680 -65 -133 -179 -320 -240 -396 -11 -15
-30 -39 -41 -54 -66 -92 -274 -303 -395 -400 -130 -105 -310 -220 -465 -295
-118 -58 -251 -115 -290 -124 -5 -2 -50 -15 -98 -30 -136 -42 -311 -78 -467
-93 -94 -10 -424 -10 -509 -1 -453 51 -871 214 -1231 482 -121 90 -151 116
-285 251 -115 115 -122 123 -202 226 -248 319 -430 736 -489 1123 -3 21 -8 48
-10 60 -19 92 -26 452 -11 596 57 566 305 1095 701 1495 226 229 416 366 690
500 218 107 473 189 686 220 24 4 47 8 50 10 3 2 44 7 90 10 47 4 86 8 88 9 8
9 362 1 452 -9z"/>
<path d="M2368 5005 c-1 -2 -34 -6 -73 -10 -38 -3 -92 -10 -120 -15 -27 -5
-61 -12 -75 -14 -369 -66 -778 -255 -1080 -500 -72 -58 -262 -242 -327 -317
-148 -171 -275 -379 -397 -650 -45 -102 -124 -364 -141 -469 -3 -19 -10 -60
-15 -90 -35 -201 -35 -556 0 -765 43 -260 117 -488 232 -715 65 -127 60 -119
142 -245 54 -83 121 -173 185 -250 46 -55 245 -250 296 -290 27 -22 59 -48 70
-58 49 -45 255 -173 377 -236 237 -121 489 -205 713 -237 22 -3 47 -7 55 -9
73 -19 450 -27 600 -13 457 44 916 233 1295 536 67 54 262 244 316 307 273
326 465 717 538 1100 38 198 46 275 46 485 0 218 -15 379 -49 525 -57 246
-125 433 -233 635 -56 107 -179 293 -252 384 -55 68 -271 291 -321 331 -14 11
-48 38 -75 61 -145 119 -425 280 -615 354 -179 69 -381 122 -555 145 -27 4
-61 9 -75 12 -28 6 -456 14 -462 8z m467 -39 c17 -3 63 -10 104 -16 263 -38
597 -155 809 -282 34 -21 65 -38 68 -38 9 0 158 -105 234 -164 94 -74 123
-100 231 -208 186 -187 327 -384 445 -623 119 -243 180 -432 229 -720 20 -119
27 -456 13 -605 -18 -176 -66 -387 -129 -565 -48 -135 -169 -382 -243 -495
-181 -277 -421 -519 -700 -708 -274 -184 -690 -342 -992 -377 -27 -3 -80 -10
-119 -15 -38 -4 -162 -7 -275 -5 -189 3 -355 22 -505 58 -356 85 -697 255
-985 492 -263 215 -475 484 -630 800 -115 233 -203 517 -226 727 -3 29 -8 60
-11 68 -3 8 -7 110 -8 225 -2 189 0 242 20 394 30 224 116 501 227 726 187
379 476 705 843 950 196 131 504 267 725 320 105 25 143 33 190 40 20 3 45 7
55 9 11 2 54 7 95 11 41 4 77 9 79 11 5 5 421 -4 456 -10z"/>
<path d="M1607 4084 c-1 -1 -38 -4 -82 -8 -473 -37 -858 -267 -1030 -615 -91
-183 -125 -348 -121 -576 5 -205 37 -347 116 -505 169 -336 483 -546 912 -611
128 -20 496 -15 561 6 7 2 30 7 52 10 127 18 268 62 380 117 127 63 114 18
114 423 1 194 3 361 7 371 15 47 31 67 67 86 58 29 112 28 178 -5 101 -49 94
34 93 -1007 0 -839 -1 -907 -17 -937 -22 -41 -51 -60 -124 -83 -56 -17 -58
-19 -61 -55 -2 -21 1 -41 6 -44 6 -3 250 -6 544 -6 l533 0 3 43 c2 28 -1 43
-10 46 -135 36 -179 66 -197 133 -9 31 -16 485 -12 658 1 19 8 20 159 21 339
1 542 39 742 139 306 154 438 455 335 766 -73 218 -319 373 -685 431 -67 10
-320 13 -1215 13 l-1130 0 0 -39 c0 -38 0 -39 53 -52 79 -21 112 -41 129 -82
13 -31 16 -94 17 -395 1 -197 -2 -367 -6 -377 -15 -40 -153 -80 -255 -74 -116
8 -183 37 -272 119 -125 116 -223 332 -257 563 -3 20 -7 43 -9 49 -18 53 -26
399 -13 543 8 94 41 254 68 340 115 352 370 529 655 455 153 -40 294 -171 389
-361 34 -69 76 -183 95 -259 10 -38 12 -40 51 -41 l42 -1 -6 286 c-2 157 -5
308 -5 334 l-1 48 -63 29 c-67 30 -188 64 -272 76 -27 3 -58 8 -69 10 -51 9
-380 24 -389 18z m2119 -1305 c232 -57 366 -261 365 -554 0 -55 -3 -113 -6
-130 -35 -185 -110 -305 -235 -377 -67 -38 -134 -57 -237 -66 l-93 -8 0 211
c-1 237 -1 838 0 902 l0 42 78 -4 c43 -2 101 -9 128 -16z"/>
</g>
</svg>
